<svg width="22" height="35" viewBox="0 0 22 35" fill="none" xmlns="http://www.w3.org/2000/svg">
<path d="M0 4.375C0 3.21468 0.46357 2.10188 1.28873 1.28141C2.11389 0.460936 3.23305 0 4.4 0L17.6 0C18.767 0 19.8861 0.460936 20.7113 1.28141C21.5364 2.10188 22 3.21468 22 4.375V30.625C22 31.7853 21.5364 32.8981 20.7113 33.7186C19.8861 34.5391 18.767 35 17.6 35H4.4C3.23305 35 2.11389 34.5391 1.28873 33.7186C0.46357 32.8981 0 31.7853 0 30.625V4.375ZM13.2 28.4375C13.2 27.8573 12.9682 27.3009 12.5556 26.8907C12.1431 26.4805 11.5835 26.25 11 26.25C10.4165 26.25 9.85695 26.4805 9.44437 26.8907C9.03179 27.3009 8.8 27.8573 8.8 28.4375C8.8 29.0177 9.03179 29.5741 9.44437 29.9843C9.85695 30.3945 10.4165 30.625 11 30.625C11.5835 30.625 12.1431 30.3945 12.5556 29.9843C12.9682 29.5741 13.2 29.0177 13.2 28.4375Z" fill="white"/>
</svg>
