<svg width="50" height="35" viewBox="0 0 50 35" fill="none" xmlns="http://www.w3.org/2000/svg">
<path d="M49.1667 14C48.8542 13.4531 45.7698 12.0542 45.7698 12.0542C46.3063 11.7633 46.6729 11.7031 46.6729 10.5C46.6729 9.1875 46.6667 8.75 45.8333 8.75H43.0062C42.9948 8.72375 42.9823 8.69641 42.9708 8.66906C41.1458 4.48437 40.901 3.42672 38.1792 2.00266C34.5281 0.0962497 27.6833 0 25 0C22.3167 0 15.4719 0.0962497 11.824 2.00266C9.09896 3.42453 9.16667 4.15625 7.03229 8.66906C7.03229 8.68109 7.01042 8.71281 6.99062 8.75H4.16042C3.33333 8.75 3.32708 9.1875 3.32708 10.5C3.32708 11.7031 3.69375 11.7633 4.23021 12.0542C4.23021 12.0542 1.25 13.5625 0.833333 14C0.416667 14.4375 0 17.5 0 22.75C0 28 0.416667 33.25 0.416667 33.25H1.66042C1.66042 34.7812 1.875 35 2.5 35H10.8333C11.4583 35 11.6667 34.7812 11.6667 33.25H38.3333C38.3333 34.7812 38.5417 35 39.1667 35H47.7083C48.125 35 48.3333 34.6719 48.3333 33.25H49.5833C49.5833 33.25 50 27.8906 50 22.75C50 17.6094 49.4792 14.5469 49.1667 14ZM11.3813 18.9153C9.48408 19.1331 7.57722 19.2448 5.66875 19.25C3.54167 19.25 3.46875 19.3933 3.31875 17.9987C3.26232 17.3605 3.28016 16.7173 3.37187 16.0836L3.4375 15.75H3.75C5 15.75 6.17396 15.8058 8.39062 16.4916C9.51805 16.8468 10.5785 17.4041 11.525 18.1388C11.9792 18.4844 12.0833 18.8125 12.0833 18.8125L11.3813 18.9153ZM37.1271 26.7903L36.6667 28H13.3333C13.3333 28 13.374 27.9333 12.8125 26.7772C12.3958 25.9219 12.9167 25.375 13.7406 25.0644C15.3365 24.4606 20 22.75 25 22.75C30 22.75 34.7562 24.2244 36.3021 25.0644C36.875 25.375 37.5865 25.5938 37.1271 26.7969V26.7903ZM10.3562 11.8573C10.0198 11.8777 9.68255 11.8803 9.34583 11.865C9.61771 11.3575 9.76875 10.792 10.0344 10.2014C10.8677 8.34203 11.8208 6.23766 13.5177 5.35063C15.9698 4.06875 21.0521 3.49125 25 3.49125C28.9479 3.49125 34.0302 4.06437 36.4823 5.35063C38.1792 6.23766 39.1281 8.34313 39.9656 10.2014C40.2333 10.7975 40.3823 11.3673 40.6615 11.8781C40.4531 11.8902 40.2135 11.8781 39.6417 11.8573H10.3562ZM46.5771 17.9944C46.3542 19.3594 46.5625 19.25 44.3312 19.25C42.4228 19.2448 40.5159 19.1331 38.6187 18.9153C38.3219 18.8595 38.2375 18.3334 38.475 18.1388C39.4167 17.3959 40.4786 16.8379 41.6094 16.4916C43.826 15.8058 45.074 15.7139 46.3063 15.7598C46.389 15.7632 46.4677 15.7985 46.5271 15.8591C46.5865 15.9197 46.6225 16.0012 46.6281 16.088C46.687 16.7246 46.6699 17.3665 46.5771 17.9987V17.9944Z" fill="white"/>
</svg>
